<?xml version='1.0' encoding='utf-8'?>
<svg xmlns="http://www.w3.org/2000/svg" width="900" height="900" viewBox="0 0 900 900">
  <rect x="0" y="0" width="900" height="900" fill="#fafafa" />
  <text x="60" y="22" font-family="monospace" font-size="12" font-weight="bold">lane_top_pathcorner_goodguys_2b</text>
  <text x="60" y="40" font-family="sans-serif" font-size="11" fill="#444">real_lane=top  team=goodguys  spawns=98  mean=(-5023,-5089)  scale=global</text>
  <line x1="474.37" y1="60" x2="474.37" y2="840" stroke="#ddd" stroke-width="1" />
  <line x1="60" y1="396.96" x2="840" y2="396.96" stroke="#ddd" stroke-width="1" />
  <circle cx="112.22" cy="600.21" r="2.20" fill="#E15759" fill-opacity="0.55" stroke="none" />
  <circle cx="125.63" cy="600.21" r="2.20" fill="#E15759" fill-opacity="0.55" stroke="none" />
  <circle cx="206.11" cy="625.62" r="2.20" fill="#E15759" fill-opacity="0.55" stroke="none" />
  <circle cx="206.11" cy="625.62" r="2.20" fill="#E15759" fill-opacity="0.55" stroke="none" />
  <circle cx="125.63" cy="600.21" r="2.20" fill="#E15759" fill-opacity="0.55" stroke="none" />
  <circle cx="273.18" cy="701.84" r="2.20" fill="#E15759" fill-opacity="0.55" stroke="none" />
  <circle cx="206.11" cy="625.62" r="2.20" fill="#E15759" fill-opacity="0.55" stroke="none" />
  <circle cx="273.18" cy="701.84" r="2.20" fill="#E15759" fill-opacity="0.55" stroke="none" />
  <circle cx="206.11" cy="625.62" r="2.20" fill="#E15759" fill-opacity="0.55" stroke="none" />
  <circle cx="273.18" cy="714.54" r="2.20" fill="#E15759" fill-opacity="0.55" stroke="none" />
  <circle cx="206.11" cy="625.62" r="2.20" fill="#E15759" fill-opacity="0.55" stroke="none" />
  <circle cx="273.18" cy="714.54" r="2.20" fill="#E15759" fill-opacity="0.55" stroke="none" />
  <circle cx="206.11" cy="625.62" r="2.20" fill="#E15759" fill-opacity="0.55" stroke="none" />
  <circle cx="125.63" cy="600.21" r="2.20" fill="#E15759" fill-opacity="0.55" stroke="none" />
  <circle cx="206.11" cy="625.62" r="2.20" fill="#E15759" fill-opacity="0.55" stroke="none" />
  <circle cx="206.11" cy="625.62" r="2.20" fill="#E15759" fill-opacity="0.55" stroke="none" />
  <circle cx="273.18" cy="701.84" r="2.20" fill="#E15759" fill-opacity="0.55" stroke="none" />
  <circle cx="206.11" cy="625.62" r="2.20" fill="#E15759" fill-opacity="0.55" stroke="none" />
  <circle cx="206.11" cy="625.62" r="2.20" fill="#E15759" fill-opacity="0.55" stroke="none" />
  <circle cx="273.18" cy="714.54" r="2.20" fill="#E15759" fill-opacity="0.55" stroke="none" />
  <circle cx="273.18" cy="701.84" r="2.20" fill="#E15759" fill-opacity="0.55" stroke="none" />
  <circle cx="206.11" cy="625.62" r="2.20" fill="#E15759" fill-opacity="0.55" stroke="none" />
  <circle cx="206.11" cy="625.62" r="2.20" fill="#E15759" fill-opacity="0.55" stroke="none" />
  <circle cx="125.63" cy="600.21" r="2.20" fill="#E15759" fill-opacity="0.55" stroke="none" />
  <circle cx="206.11" cy="625.62" r="2.20" fill="#E15759" fill-opacity="0.55" stroke="none" />
  <circle cx="273.18" cy="714.54" r="2.20" fill="#E15759" fill-opacity="0.55" stroke="none" />
  <circle cx="112.22" cy="600.21" r="2.20" fill="#E15759" fill-opacity="0.55" stroke="none" />
  <circle cx="125.63" cy="600.21" r="2.20" fill="#E15759" fill-opacity="0.55" stroke="none" />
  <circle cx="206.11" cy="625.62" r="2.20" fill="#E15759" fill-opacity="0.55" stroke="none" />
  <circle cx="125.63" cy="600.21" r="2.20" fill="#E15759" fill-opacity="0.55" stroke="none" />
  <circle cx="206.11" cy="625.62" r="2.20" fill="#E15759" fill-opacity="0.55" stroke="none" />
  <circle cx="273.18" cy="701.84" r="2.20" fill="#E15759" fill-opacity="0.55" stroke="none" />
  <circle cx="273.18" cy="701.84" r="2.20" fill="#E15759" fill-opacity="0.55" stroke="none" />
  <circle cx="273.18" cy="701.84" r="2.20" fill="#E15759" fill-opacity="0.55" stroke="none" />
  <circle cx="206.11" cy="625.62" r="2.20" fill="#E15759" fill-opacity="0.55" stroke="none" />
  <circle cx="273.18" cy="701.84" r="2.20" fill="#E15759" fill-opacity="0.55" stroke="none" />
  <circle cx="273.18" cy="714.54" r="2.20" fill="#E15759" fill-opacity="0.55" stroke="none" />
  <circle cx="206.11" cy="625.62" r="2.20" fill="#E15759" fill-opacity="0.55" stroke="none" />
  <circle cx="273.18" cy="701.84" r="2.20" fill="#E15759" fill-opacity="0.55" stroke="none" />
  <circle cx="125.63" cy="600.21" r="2.20" fill="#E15759" fill-opacity="0.55" stroke="none" />
  <circle cx="206.11" cy="625.62" r="2.20" fill="#E15759" fill-opacity="0.55" stroke="none" />
  <circle cx="273.18" cy="714.54" r="2.20" fill="#E15759" fill-opacity="0.55" stroke="none" />
  <circle cx="206.11" cy="625.62" r="2.20" fill="#E15759" fill-opacity="0.55" stroke="none" />
  <circle cx="273.18" cy="714.54" r="2.20" fill="#E15759" fill-opacity="0.55" stroke="none" />
  <circle cx="125.63" cy="600.21" r="2.20" fill="#E15759" fill-opacity="0.55" stroke="none" />
  <circle cx="206.11" cy="625.62" r="2.20" fill="#E15759" fill-opacity="0.55" stroke="none" />
  <circle cx="273.18" cy="714.54" r="2.20" fill="#E15759" fill-opacity="0.55" stroke="none" />
  <circle cx="273.18" cy="701.84" r="2.20" fill="#E15759" fill-opacity="0.55" stroke="none" />
  <circle cx="273.18" cy="701.84" r="2.20" fill="#E15759" fill-opacity="0.55" stroke="none" />
  <circle cx="206.11" cy="625.62" r="2.20" fill="#E15759" fill-opacity="0.55" stroke="none" />
  <circle cx="273.18" cy="701.84" r="2.20" fill="#E15759" fill-opacity="0.55" stroke="none" />
  <circle cx="206.11" cy="625.62" r="2.20" fill="#E15759" fill-opacity="0.55" stroke="none" />
  <circle cx="112.22" cy="600.21" r="2.20" fill="#E15759" fill-opacity="0.55" stroke="none" />
  <circle cx="206.11" cy="625.62" r="2.20" fill="#E15759" fill-opacity="0.55" stroke="none" />
  <circle cx="206.11" cy="625.62" r="2.20" fill="#E15759" fill-opacity="0.55" stroke="none" />
  <circle cx="273.18" cy="701.84" r="2.20" fill="#E15759" fill-opacity="0.55" stroke="none" />
  <circle cx="125.63" cy="600.21" r="2.20" fill="#E15759" fill-opacity="0.55" stroke="none" />
  <circle cx="273.18" cy="701.84" r="2.20" fill="#E15759" fill-opacity="0.55" stroke="none" />
  <circle cx="206.11" cy="625.62" r="2.20" fill="#E15759" fill-opacity="0.55" stroke="none" />
  <circle cx="206.11" cy="625.62" r="2.20" fill="#E15759" fill-opacity="0.55" stroke="none" />
  <circle cx="273.18" cy="701.84" r="2.20" fill="#E15759" fill-opacity="0.55" stroke="none" />
  <circle cx="206.11" cy="625.62" r="2.20" fill="#E15759" fill-opacity="0.55" stroke="none" />
  <circle cx="273.18" cy="714.54" r="2.20" fill="#E15759" fill-opacity="0.55" stroke="none" />
  <circle cx="206.11" cy="625.62" r="2.20" fill="#E15759" fill-opacity="0.55" stroke="none" />
  <circle cx="125.63" cy="600.21" r="2.20" fill="#E15759" fill-opacity="0.55" stroke="none" />
  <circle cx="206.11" cy="625.62" r="2.20" fill="#E15759" fill-opacity="0.55" stroke="none" />
  <circle cx="206.11" cy="625.62" r="2.20" fill="#E15759" fill-opacity="0.55" stroke="none" />
  <circle cx="273.18" cy="714.54" r="2.20" fill="#E15759" fill-opacity="0.55" stroke="none" />
  <circle cx="206.11" cy="625.62" r="2.20" fill="#E15759" fill-opacity="0.55" stroke="none" />
  <circle cx="206.11" cy="625.62" r="2.20" fill="#E15759" fill-opacity="0.55" stroke="none" />
  <circle cx="125.63" cy="600.21" r="2.20" fill="#E15759" fill-opacity="0.55" stroke="none" />
  <circle cx="273.18" cy="701.84" r="2.20" fill="#E15759" fill-opacity="0.55" stroke="none" />
  <circle cx="206.11" cy="625.62" r="2.20" fill="#E15759" fill-opacity="0.55" stroke="none" />
  <circle cx="273.18" cy="701.84" r="2.20" fill="#E15759" fill-opacity="0.55" stroke="none" />
  <circle cx="206.11" cy="625.62" r="2.20" fill="#E15759" fill-opacity="0.55" stroke="none" />
  <circle cx="112.22" cy="600.21" r="2.20" fill="#E15759" fill-opacity="0.55" stroke="none" />
  <circle cx="273.18" cy="701.84" r="2.20" fill="#E15759" fill-opacity="0.55" stroke="none" />
  <circle cx="206.11" cy="625.62" r="2.20" fill="#E15759" fill-opacity="0.55" stroke="none" />
  <circle cx="273.18" cy="701.84" r="2.20" fill="#E15759" fill-opacity="0.55" stroke="none" />
  <circle cx="125.63" cy="612.91" r="2.20" fill="#E15759" fill-opacity="0.55" stroke="none" />
  <circle cx="273.18" cy="701.84" r="2.20" fill="#E15759" fill-opacity="0.55" stroke="none" />
  <circle cx="125.63" cy="600.21" r="2.20" fill="#E15759" fill-opacity="0.55" stroke="none" />
  <circle cx="112.22" cy="600.21" r="2.20" fill="#E15759" fill-opacity="0.55" stroke="none" />
  <circle cx="273.18" cy="701.84" r="2.20" fill="#E15759" fill-opacity="0.55" stroke="none" />
  <circle cx="125.63" cy="600.21" r="2.20" fill="#E15759" fill-opacity="0.55" stroke="none" />
  <circle cx="125.63" cy="600.21" r="2.20" fill="#E15759" fill-opacity="0.55" stroke="none" />
  <circle cx="125.63" cy="600.21" r="2.20" fill="#E15759" fill-opacity="0.55" stroke="none" />
  <circle cx="206.11" cy="625.62" r="2.20" fill="#E15759" fill-opacity="0.55" stroke="none" />
  <circle cx="273.18" cy="701.84" r="2.20" fill="#E15759" fill-opacity="0.55" stroke="none" />
  <circle cx="206.11" cy="625.62" r="2.20" fill="#E15759" fill-opacity="0.55" stroke="none" />
  <circle cx="273.18" cy="714.54" r="2.20" fill="#E15759" fill-opacity="0.55" stroke="none" />
  <circle cx="273.18" cy="714.54" r="2.20" fill="#E15759" fill-opacity="0.55" stroke="none" />
  <circle cx="125.63" cy="600.21" r="2.20" fill="#E15759" fill-opacity="0.55" stroke="none" />
  <circle cx="206.11" cy="625.62" r="2.20" fill="#E15759" fill-opacity="0.55" stroke="none" />
  <circle cx="273.18" cy="701.84" r="2.20" fill="#E15759" fill-opacity="0.55" stroke="none" />
  <circle cx="125.63" cy="600.21" r="2.20" fill="#E15759" fill-opacity="0.55" stroke="none" />
  <circle cx="206.11" cy="625.62" r="2.20" fill="#E15759" fill-opacity="0.55" stroke="none" />
  <circle cx="273.18" cy="714.54" r="2.20" fill="#E15759" fill-opacity="0.55" stroke="none" />
  <circle cx="211.18" cy="649.47" r="5" fill="none" stroke="#111" stroke-width="1.5" />
  <line x1="203.18" y1="649.47" x2="219.18" y2="649.47" stroke="#111" stroke-width="1.2" />
  <line x1="211.18" y1="641.47" x2="211.18" y2="657.47" stroke="#111" stroke-width="1.2" />
  <text x="60" y="882" font-family="sans-serif" font-size="10" fill="#666">dot = spawn; crosshair = mean; same scale as pathcorner-lane-map.svg</text>
</svg>